<svg width="677" height="238" viewBox="0 0 677 238" fill="none" xmlns="http://www.w3.org/2000/svg">
<rect x="44.1587" y="36.7056" width="162.335" height="71.2918" fill="white" fill-opacity="0.87"/>
<path d="M41.8441 0.88086C36.5175 3.22858 32.7445 7.42093 30.3919 13.7374L28.9714 17.4826V83.2186V148.899L30.6138 153.091C32.6557 158.29 35.5853 161.923 39.7579 164.383L42.7319 166.171L97.1522 166.339L151.573 166.451L167.863 184.059C176.83 193.729 184.331 201.778 184.553 201.946C184.775 202.114 188.149 194.232 192.055 184.45L199.157 166.618L201.687 166.283C207.547 165.501 213.45 159.967 216.202 152.588L217.623 148.843V83.1627V17.4826L216.202 13.7374C214.249 8.48299 211.364 4.79372 207.236 2.22241L203.907 0.154186L124.007 0.0423903C49.0794 -0.0694057 43.9304 -0.0135077 41.8441 0.88086ZM69.7201 61.642C71.3625 65.7785 72.8717 69.1882 73.0936 69.1882C74.2034 69.1882 85.7444 71.48 85.9663 71.7595C86.0995 71.8713 83.9688 74.6662 81.3055 77.8524L76.3784 83.6658L77.5769 92.33L78.7754 101.05L72.6498 96.9695L66.4798 92.9449L60.3541 96.9695L54.1841 101.05L55.3826 92.33L56.5811 83.6658L51.6984 77.8524C48.9907 74.6103 46.86 71.8713 46.9932 71.7595C47.1707 71.5359 58.8893 69.1882 59.8215 69.1882C60.0434 69.1882 61.597 65.7785 63.2394 61.642C64.8818 57.5055 66.3466 54.0958 66.4798 54.0958C66.6129 54.0958 68.0777 57.5055 69.7201 61.642ZM126.537 61.642C128.18 65.7785 129.689 69.1882 129.911 69.1882C131.021 69.1882 142.562 71.48 142.784 71.7595C142.917 71.8713 140.786 74.6662 138.123 77.8524L133.196 83.6658L134.394 92.33L135.593 101.05L129.467 96.9695L123.297 92.9449L117.171 96.9695L111.001 101.05L112.2 92.33L113.398 83.6658L108.516 77.8524C105.808 74.6103 103.677 71.8713 103.811 71.7595C103.988 71.5359 115.707 69.1882 116.639 69.1882C116.861 69.1882 118.414 65.7785 120.057 61.642C121.699 57.5055 123.164 54.0958 123.297 54.0958C123.43 54.0958 124.895 57.5055 126.537 61.642ZM183.355 61.642C184.997 65.7785 186.506 69.1882 186.728 69.1882C187.838 69.1882 199.379 71.48 199.601 71.7595C199.734 71.8713 197.604 74.6662 194.94 77.8524L190.013 83.6658L191.212 92.33L192.41 101.05L186.284 96.9695L180.114 92.9449L173.989 96.9695L167.819 101.05L169.017 92.33L170.216 83.6658L165.333 77.8524C162.625 74.6103 160.495 71.8713 160.628 71.7595C160.805 71.5359 172.524 69.1882 173.456 69.1882C173.678 69.1882 175.232 65.7785 176.874 61.642C178.516 57.5055 179.981 54.0958 180.114 54.0958C180.248 54.0958 181.712 57.5055 183.355 61.642Z" fill="#8257E5"/>
<path d="M13.4359 72.4301C8.10923 74.7219 4.33621 78.9701 1.98361 85.2866L0.56318 89.0318L0.208071 115.024C-0.0138714 129.334 -0.05826 149.961 0.0749057 160.861C0.296848 182.27 0.651957 186.238 2.73822 190.71C5.35714 196.3 11.5715 201.443 16.5431 202.058L19.0288 202.393L26.131 220.169C29.9928 230.007 33.2775 238 33.3663 238C33.4551 238 41.0011 229.951 50.1008 220.113L66.6577 202.281L97.3302 202.113L127.958 201.946L130.533 200.66C133.729 199.039 138.168 193.952 139.854 189.984C140.831 187.748 142.34 181.319 142.385 179.195C142.385 178.972 119.968 178.692 92.5806 178.58C37.0062 178.413 41.2675 178.692 34.5204 174.444C29.8152 171.481 24.5774 164.885 22.358 159.184C19.1176 150.855 19.2951 153.091 19.1176 110.105L18.94 71.4239H17.2977C16.4099 71.4798 14.6343 71.8711 13.4359 72.4301Z" fill="#8257E5"/>
<path d="M257.164 155V88.472H301.708V101.048H272.14V114.968H298.444V127.544H272.14V155H257.164ZM307.992 130.136C307.992 125.656 308.664 121.752 310.008 118.424C311.416 115.032 313.24 112.216 315.48 109.976C317.72 107.736 320.28 106.04 323.16 104.888C326.104 103.736 329.112 103.16 332.184 103.16C339.352 103.16 345.016 105.368 349.176 109.784C353.336 114.136 355.416 120.568 355.416 129.08C355.416 129.912 355.384 130.84 355.32 131.864C355.256 132.824 355.192 133.688 355.128 134.456H322.68C323 137.4 324.376 139.736 326.808 141.464C329.24 143.192 332.504 144.056 336.6 144.056C339.224 144.056 341.784 143.832 344.28 143.384C346.84 142.872 348.92 142.264 350.52 141.56L352.44 153.176C351.672 153.56 350.648 153.944 349.368 154.328C348.088 154.712 346.648 155.032 345.048 155.288C343.512 155.608 341.848 155.864 340.056 156.056C338.264 156.248 336.472 156.344 334.68 156.344C330.136 156.344 326.168 155.672 322.776 154.328C319.448 152.984 316.664 151.16 314.424 148.856C312.248 146.488 310.616 143.704 309.528 140.504C308.504 137.304 307.992 133.848 307.992 130.136ZM341.592 124.664C341.528 123.448 341.304 122.264 340.92 121.112C340.6 119.96 340.056 118.936 339.288 118.04C338.584 117.144 337.656 116.408 336.504 115.832C335.416 115.256 334.04 114.968 332.376 114.968C330.776 114.968 329.4 115.256 328.248 115.832C327.096 116.344 326.136 117.048 325.368 117.944C324.6 118.84 323.992 119.896 323.544 121.112C323.16 122.264 322.872 123.448 322.68 124.664H341.592ZM364.054 130.136C364.054 125.656 364.726 121.752 366.07 118.424C367.478 115.032 369.302 112.216 371.542 109.976C373.782 107.736 376.342 106.04 379.222 104.888C382.166 103.736 385.174 103.16 388.246 103.16C395.414 103.16 401.078 105.368 405.238 109.784C409.398 114.136 411.478 120.568 411.478 129.08C411.478 129.912 411.446 130.84 411.382 131.864C411.318 132.824 411.254 133.688 411.19 134.456H378.742C379.062 137.4 380.438 139.736 382.87 141.464C385.302 143.192 388.566 144.056 392.662 144.056C395.286 144.056 397.846 143.832 400.342 143.384C402.902 142.872 404.982 142.264 406.582 141.56L408.502 153.176C407.734 153.56 406.71 153.944 405.43 154.328C404.15 154.712 402.71 155.032 401.11 155.288C399.574 155.608 397.91 155.864 396.118 156.056C394.326 156.248 392.534 156.344 390.742 156.344C386.198 156.344 382.23 155.672 378.838 154.328C375.51 152.984 372.726 151.16 370.486 148.856C368.31 146.488 366.678 143.704 365.59 140.504C364.566 137.304 364.054 133.848 364.054 130.136ZM397.654 124.664C397.59 123.448 397.366 122.264 396.982 121.112C396.662 119.96 396.118 118.936 395.35 118.04C394.646 117.144 393.718 116.408 392.566 115.832C391.478 115.256 390.102 114.968 388.438 114.968C386.838 114.968 385.462 115.256 384.31 115.832C383.158 116.344 382.198 117.048 381.43 117.944C380.662 118.84 380.054 119.896 379.606 121.112C379.222 122.264 378.934 123.448 378.742 124.664H397.654ZM434.709 129.368C434.709 133.784 435.701 137.336 437.685 140.024C439.669 142.712 442.613 144.056 446.517 144.056C447.797 144.056 448.981 144.024 450.069 143.96C451.157 143.832 452.053 143.704 452.757 143.576V117.56C451.861 116.984 450.677 116.504 449.205 116.12C447.797 115.736 446.357 115.544 444.885 115.544C438.101 115.544 434.709 120.152 434.709 129.368ZM467.061 153.368C465.781 153.752 464.309 154.136 462.645 154.52C460.981 154.84 459.221 155.128 457.365 155.384C455.573 155.64 453.717 155.832 451.797 155.96C449.941 156.152 448.149 156.248 446.421 156.248C442.261 156.248 438.549 155.64 435.285 154.424C432.021 153.208 429.269 151.48 427.029 149.24C424.789 146.936 423.061 144.184 421.845 140.984C420.693 137.72 420.117 134.072 420.117 130.04C420.117 125.944 420.629 122.264 421.653 119C422.677 115.672 424.149 112.856 426.069 110.552C427.989 108.248 430.325 106.488 433.077 105.272C435.893 104.056 439.093 103.448 442.677 103.448C444.661 103.448 446.421 103.64 447.957 104.024C449.557 104.408 451.157 104.952 452.757 105.656V82.808L467.061 80.504V153.368ZM478.291 119.864H506.131V132.824H478.291V119.864ZM550.519 99.992C543.543 99.992 538.487 101.944 535.351 105.848C532.279 109.688 530.743 114.968 530.743 121.688C530.743 124.952 531.127 127.928 531.895 130.616C532.663 133.24 533.815 135.512 535.351 137.432C536.887 139.352 538.807 140.856 541.111 141.944C543.415 142.968 546.103 143.48 549.175 143.48C550.839 143.48 552.247 143.448 553.399 143.384C554.615 143.32 555.671 143.192 556.567 143V119.864H571.543V152.792C569.751 153.496 566.871 154.232 562.903 155C558.935 155.832 554.039 156.248 548.215 156.248C543.223 156.248 538.679 155.48 534.583 153.944C530.551 152.408 527.095 150.168 524.215 147.224C521.335 144.28 519.095 140.664 517.495 136.376C515.959 132.088 515.191 127.192 515.191 121.688C515.191 116.12 516.055 111.192 517.783 106.904C519.511 102.616 521.879 99 524.887 96.056C527.895 93.048 531.415 90.776 535.447 89.24C539.543 87.704 543.895 86.936 548.503 86.936C551.639 86.936 554.455 87.16 556.951 87.608C559.511 87.992 561.687 88.472 563.479 89.048C565.335 89.56 566.839 90.104 567.991 90.68C569.207 91.256 570.071 91.704 570.583 92.024L566.263 104.024C564.215 102.936 561.847 102.008 559.159 101.24C556.535 100.408 553.655 99.992 550.519 99.992ZM582.117 130.136C582.117 125.656 582.789 121.752 584.133 118.424C585.541 115.032 587.365 112.216 589.605 109.976C591.845 107.736 594.405 106.04 597.285 104.888C600.229 103.736 603.237 103.16 606.309 103.16C613.477 103.16 619.141 105.368 623.301 109.784C627.461 114.136 629.541 120.568 629.541 129.08C629.541 129.912 629.509 130.84 629.445 131.864C629.381 132.824 629.317 133.688 629.253 134.456H596.805C597.125 137.4 598.501 139.736 600.933 141.464C603.365 143.192 606.629 144.056 610.725 144.056C613.349 144.056 615.909 143.832 618.405 143.384C620.965 142.872 623.045 142.264 624.645 141.56L626.565 153.176C625.797 153.56 624.773 153.944 623.493 154.328C622.213 154.712 620.773 155.032 619.173 155.288C617.637 155.608 615.973 155.864 614.181 156.056C612.389 156.248 610.597 156.344 608.805 156.344C604.261 156.344 600.293 155.672 596.901 154.328C593.573 152.984 590.789 151.16 588.549 148.856C586.373 146.488 584.741 143.704 583.653 140.504C582.629 137.304 582.117 133.848 582.117 130.136ZM615.717 124.664C615.653 123.448 615.429 122.264 615.045 121.112C614.725 119.96 614.181 118.936 613.413 118.04C612.709 117.144 611.781 116.408 610.629 115.832C609.541 115.256 608.165 114.968 606.501 114.968C604.901 114.968 603.525 115.256 602.373 115.832C601.221 116.344 600.261 117.048 599.493 117.944C598.725 118.84 598.117 119.896 597.669 121.112C597.285 122.264 596.997 123.448 596.805 124.664H615.717ZM640.099 91.928L654.403 89.624V104.504H671.587V116.408H654.403V134.168C654.403 137.176 654.915 139.576 655.939 141.368C657.027 143.16 659.171 144.056 662.371 144.056C663.907 144.056 665.475 143.928 667.075 143.672C668.739 143.352 670.243 142.936 671.587 142.424L673.603 153.56C671.875 154.264 669.955 154.872 667.843 155.384C665.731 155.896 663.139 156.152 660.067 156.152C656.163 156.152 652.931 155.64 650.371 154.616C647.811 153.528 645.763 152.056 644.227 150.2C642.691 148.28 641.603 145.976 640.963 143.288C640.387 140.6 640.099 137.624 640.099 134.36V91.928Z" fill="white"/>
</svg>
