<svg width="1502" height="340" viewBox="0 0 1502 340" fill="none" xmlns="http://www.w3.org/2000/svg">
<rect width="1502" height="340" fill="#4E28A5"/>
<rect x="477.159" y="87.7056" width="162.335" height="71.2918" fill="white" fill-opacity="0.87"/>
<path d="M474.844 51.8809C469.517 54.2286 465.744 58.4209 463.392 64.7374L461.971 68.4826V134.219V199.899L463.614 204.091C465.656 209.29 468.585 212.923 472.758 215.383L475.732 217.171L530.152 217.339L584.573 217.451L600.863 235.059C609.83 244.729 617.331 252.778 617.553 252.946C617.775 253.114 621.149 245.232 625.055 235.45L632.157 217.618L634.687 217.283C640.547 216.501 646.45 210.967 649.202 203.588L650.623 199.843V134.163V68.4826L649.202 64.7374C647.249 59.483 644.364 55.7937 640.236 53.2224L636.907 51.1542L557.007 51.0424C482.079 50.9306 476.93 50.9865 474.844 51.8809ZM502.72 112.642C504.362 116.778 505.872 120.188 506.094 120.188C507.203 120.188 518.744 122.48 518.966 122.76C519.099 122.871 516.969 125.666 514.306 128.852L509.378 134.666L510.577 143.33L511.775 152.05L505.65 147.97L499.48 143.945L493.354 147.97L487.184 152.05L488.383 143.33L489.581 134.666L484.698 128.852C481.991 125.61 479.86 122.871 479.993 122.76C480.171 122.536 491.889 120.188 492.821 120.188C493.043 120.188 494.597 116.778 496.239 112.642C497.882 108.506 499.347 105.096 499.48 105.096C499.613 105.096 501.078 108.506 502.72 112.642ZM559.537 112.642C561.18 116.778 562.689 120.188 562.911 120.188C564.021 120.188 575.562 122.48 575.784 122.76C575.917 122.871 573.786 125.666 571.123 128.852L566.196 134.666L567.394 143.33L568.593 152.05L562.467 147.97L556.297 143.945L550.171 147.97L544.001 152.05L545.2 143.33L546.398 134.666L541.516 128.852C538.808 125.61 536.677 122.871 536.811 122.76C536.988 122.536 548.707 120.188 549.639 120.188C549.861 120.188 551.414 116.778 553.057 112.642C554.699 108.506 556.164 105.096 556.297 105.096C556.43 105.096 557.895 108.506 559.537 112.642ZM616.355 112.642C617.997 116.778 619.506 120.188 619.728 120.188C620.838 120.188 632.379 122.48 632.601 122.76C632.734 122.871 630.604 125.666 627.94 128.852L623.013 134.666L624.212 143.33L625.41 152.05L619.284 147.97L613.114 143.945L606.989 147.97L600.819 152.05L602.017 143.33L603.216 134.666L598.333 128.852C595.625 125.61 593.495 122.871 593.628 122.76C593.805 122.536 605.524 120.188 606.456 120.188C606.678 120.188 608.232 116.778 609.874 112.642C611.516 108.506 612.981 105.096 613.114 105.096C613.248 105.096 614.712 108.506 616.355 112.642Z" fill="#8257E5"/>
<path d="M446.436 123.43C441.109 125.722 437.336 129.97 434.984 136.287L433.563 140.032L433.208 166.024C432.986 180.334 432.942 200.961 433.075 211.861C433.297 233.27 433.652 237.238 435.738 241.71C438.357 247.3 444.572 252.443 449.543 253.058L452.029 253.393L459.131 271.169C462.993 281.007 466.278 289 466.366 289C466.455 289 474.001 280.951 483.101 271.113L499.658 253.281L530.33 253.113L560.958 252.946L563.533 251.66C566.729 250.039 571.168 244.952 572.854 240.984C573.831 238.748 575.34 232.319 575.385 230.195C575.385 229.972 552.968 229.692 525.581 229.58C470.006 229.413 474.267 229.692 467.52 225.444C462.815 222.481 457.577 215.885 455.358 210.184C452.118 201.855 452.295 204.091 452.118 161.105L451.94 122.424H450.298C449.41 122.48 447.634 122.871 446.436 123.43Z" fill="#8257E5"/>
<path d="M690.164 206V139.472H734.708V152.048H705.14V165.968H731.444V178.544H705.14V206H690.164ZM740.992 181.136C740.992 176.656 741.664 172.752 743.008 169.424C744.416 166.032 746.24 163.216 748.48 160.976C750.72 158.736 753.28 157.04 756.16 155.888C759.104 154.736 762.112 154.16 765.184 154.16C772.352 154.16 778.016 156.368 782.176 160.784C786.336 165.136 788.416 171.568 788.416 180.08C788.416 180.912 788.384 181.84 788.32 182.864C788.256 183.824 788.192 184.688 788.128 185.456H755.68C756 188.4 757.376 190.736 759.808 192.464C762.24 194.192 765.504 195.056 769.6 195.056C772.224 195.056 774.784 194.832 777.28 194.384C779.84 193.872 781.92 193.264 783.52 192.56L785.44 204.176C784.672 204.56 783.648 204.944 782.368 205.328C781.088 205.712 779.648 206.032 778.048 206.288C776.512 206.608 774.848 206.864 773.056 207.056C771.264 207.248 769.472 207.344 767.68 207.344C763.136 207.344 759.168 206.672 755.776 205.328C752.448 203.984 749.664 202.16 747.424 199.856C745.248 197.488 743.616 194.704 742.528 191.504C741.504 188.304 740.992 184.848 740.992 181.136ZM774.592 175.664C774.528 174.448 774.304 173.264 773.92 172.112C773.6 170.96 773.056 169.936 772.288 169.04C771.584 168.144 770.656 167.408 769.504 166.832C768.416 166.256 767.04 165.968 765.376 165.968C763.776 165.968 762.4 166.256 761.248 166.832C760.096 167.344 759.136 168.048 758.368 168.944C757.6 169.84 756.992 170.896 756.544 172.112C756.16 173.264 755.872 174.448 755.68 175.664H774.592ZM797.054 181.136C797.054 176.656 797.726 172.752 799.07 169.424C800.478 166.032 802.302 163.216 804.542 160.976C806.782 158.736 809.342 157.04 812.222 155.888C815.166 154.736 818.174 154.16 821.246 154.16C828.414 154.16 834.078 156.368 838.238 160.784C842.398 165.136 844.478 171.568 844.478 180.08C844.478 180.912 844.446 181.84 844.382 182.864C844.318 183.824 844.254 184.688 844.19 185.456H811.742C812.062 188.4 813.438 190.736 815.87 192.464C818.302 194.192 821.566 195.056 825.662 195.056C828.286 195.056 830.846 194.832 833.342 194.384C835.902 193.872 837.982 193.264 839.582 192.56L841.502 204.176C840.734 204.56 839.71 204.944 838.43 205.328C837.15 205.712 835.71 206.032 834.11 206.288C832.574 206.608 830.91 206.864 829.118 207.056C827.326 207.248 825.534 207.344 823.742 207.344C819.198 207.344 815.23 206.672 811.838 205.328C808.51 203.984 805.726 202.16 803.486 199.856C801.31 197.488 799.678 194.704 798.59 191.504C797.566 188.304 797.054 184.848 797.054 181.136ZM830.654 175.664C830.59 174.448 830.366 173.264 829.982 172.112C829.662 170.96 829.118 169.936 828.35 169.04C827.646 168.144 826.718 167.408 825.566 166.832C824.478 166.256 823.102 165.968 821.438 165.968C819.838 165.968 818.462 166.256 817.31 166.832C816.158 167.344 815.198 168.048 814.43 168.944C813.662 169.84 813.054 170.896 812.606 172.112C812.222 173.264 811.934 174.448 811.742 175.664H830.654ZM867.709 180.368C867.709 184.784 868.701 188.336 870.685 191.024C872.669 193.712 875.613 195.056 879.517 195.056C880.797 195.056 881.981 195.024 883.069 194.96C884.157 194.832 885.053 194.704 885.757 194.576V168.56C884.861 167.984 883.677 167.504 882.205 167.12C880.797 166.736 879.357 166.544 877.885 166.544C871.101 166.544 867.709 171.152 867.709 180.368ZM900.061 204.368C898.781 204.752 897.309 205.136 895.645 205.52C893.981 205.84 892.221 206.128 890.365 206.384C888.573 206.64 886.717 206.832 884.797 206.96C882.941 207.152 881.149 207.248 879.421 207.248C875.261 207.248 871.549 206.64 868.285 205.424C865.021 204.208 862.269 202.48 860.029 200.24C857.789 197.936 856.061 195.184 854.845 191.984C853.693 188.72 853.117 185.072 853.117 181.04C853.117 176.944 853.629 173.264 854.653 170C855.677 166.672 857.149 163.856 859.069 161.552C860.989 159.248 863.325 157.488 866.077 156.272C868.893 155.056 872.093 154.448 875.677 154.448C877.661 154.448 879.421 154.64 880.957 155.024C882.557 155.408 884.157 155.952 885.757 156.656V133.808L900.061 131.504V204.368ZM911.291 170.864H939.131V183.824H911.291V170.864ZM983.519 150.992C976.543 150.992 971.487 152.944 968.351 156.848C965.279 160.688 963.743 165.968 963.743 172.688C963.743 175.952 964.127 178.928 964.895 181.616C965.663 184.24 966.815 186.512 968.351 188.432C969.887 190.352 971.807 191.856 974.111 192.944C976.415 193.968 979.103 194.48 982.175 194.48C983.839 194.48 985.247 194.448 986.399 194.384C987.615 194.32 988.671 194.192 989.567 194V170.864H1004.54V203.792C1002.75 204.496 999.871 205.232 995.903 206C991.935 206.832 987.039 207.248 981.215 207.248C976.223 207.248 971.679 206.48 967.583 204.944C963.551 203.408 960.095 201.168 957.215 198.224C954.335 195.28 952.095 191.664 950.495 187.376C948.959 183.088 948.191 178.192 948.191 172.688C948.191 167.12 949.055 162.192 950.783 157.904C952.511 153.616 954.879 150 957.887 147.056C960.895 144.048 964.415 141.776 968.447 140.24C972.543 138.704 976.895 137.936 981.503 137.936C984.639 137.936 987.455 138.16 989.951 138.608C992.511 138.992 994.687 139.472 996.479 140.048C998.335 140.56 999.839 141.104 1000.99 141.68C1002.21 142.256 1003.07 142.704 1003.58 143.024L999.263 155.024C997.215 153.936 994.847 153.008 992.159 152.24C989.535 151.408 986.655 150.992 983.519 150.992ZM1015.12 181.136C1015.12 176.656 1015.79 172.752 1017.13 169.424C1018.54 166.032 1020.36 163.216 1022.6 160.976C1024.84 158.736 1027.4 157.04 1030.28 155.888C1033.23 154.736 1036.24 154.16 1039.31 154.16C1046.48 154.16 1052.14 156.368 1056.3 160.784C1060.46 165.136 1062.54 171.568 1062.54 180.08C1062.54 180.912 1062.51 181.84 1062.44 182.864C1062.38 183.824 1062.32 184.688 1062.25 185.456H1029.8C1030.12 188.4 1031.5 190.736 1033.93 192.464C1036.36 194.192 1039.63 195.056 1043.72 195.056C1046.35 195.056 1048.91 194.832 1051.4 194.384C1053.96 193.872 1056.04 193.264 1057.64 192.56L1059.56 204.176C1058.8 204.56 1057.77 204.944 1056.49 205.328C1055.21 205.712 1053.77 206.032 1052.17 206.288C1050.64 206.608 1048.97 206.864 1047.18 207.056C1045.39 207.248 1043.6 207.344 1041.8 207.344C1037.26 207.344 1033.29 206.672 1029.9 205.328C1026.57 203.984 1023.79 202.16 1021.55 199.856C1019.37 197.488 1017.74 194.704 1016.65 191.504C1015.63 188.304 1015.12 184.848 1015.12 181.136ZM1048.72 175.664C1048.65 174.448 1048.43 173.264 1048.04 172.112C1047.72 170.96 1047.18 169.936 1046.41 169.04C1045.71 168.144 1044.78 167.408 1043.63 166.832C1042.54 166.256 1041.16 165.968 1039.5 165.968C1037.9 165.968 1036.52 166.256 1035.37 166.832C1034.22 167.344 1033.26 168.048 1032.49 168.944C1031.72 169.84 1031.12 170.896 1030.67 172.112C1030.28 173.264 1030 174.448 1029.8 175.664H1048.72ZM1073.1 142.928L1087.4 140.624V155.504H1104.59V167.408H1087.4V185.168C1087.4 188.176 1087.92 190.576 1088.94 192.368C1090.03 194.16 1092.17 195.056 1095.37 195.056C1096.91 195.056 1098.48 194.928 1100.08 194.672C1101.74 194.352 1103.24 193.936 1104.59 193.424L1106.6 204.56C1104.88 205.264 1102.96 205.872 1100.84 206.384C1098.73 206.896 1096.14 207.152 1093.07 207.152C1089.16 207.152 1085.93 206.64 1083.37 205.616C1080.81 204.528 1078.76 203.056 1077.23 201.2C1075.69 199.28 1074.6 196.976 1073.96 194.288C1073.39 191.6 1073.1 188.624 1073.1 185.36V142.928Z" fill="white"/>
</svg>
