<svg width="54" height="52" viewBox="0 0 54 52" fill="none" xmlns="http://www.w3.org/2000/svg">
<rect x="10.8809" y="8.01978" width="40" height="15.5764" fill="white" fill-opacity="0.87"/>
<path d="M10.3105 0.192513C8.99805 0.70546 8.06836 1.62144 7.48867 3.00151L7.13867 3.81978V18.1823V32.5326L7.54336 33.4485C8.04648 34.5844 8.76836 35.3782 9.79648 35.9156L10.5293 36.3064L23.9387 36.343L37.348 36.3675L41.3621 40.2146C43.5715 42.3274 45.4199 44.0861 45.4746 44.1227C45.5293 44.1594 46.3605 42.4373 47.323 40.3L49.073 36.4041L49.6965 36.3308C51.1402 36.1598 52.5949 34.9507 53.273 33.3386L53.623 32.5204V18.1701V3.81978L53.273 3.00151C52.7918 1.85349 52.0809 1.04742 51.0637 0.485626L50.2434 0.0337448L30.5559 0.00931931C12.0934 -0.0151062 10.8246 -0.00289536 10.3105 0.192513ZM17.1793 13.4681C17.584 14.3718 17.9559 15.1168 18.0105 15.1168C18.284 15.1168 21.1277 15.6175 21.1824 15.6786C21.2152 15.703 20.6902 16.3137 20.034 17.0098L18.8199 18.28L19.1152 20.173L19.4105 22.0782L17.9012 21.1867L16.3809 20.3073L14.8715 21.1867L13.3512 22.0782L13.6465 20.173L13.9418 18.28L12.7387 17.0098C12.0715 16.3015 11.5465 15.703 11.5793 15.6786C11.623 15.6298 14.5105 15.1168 14.7402 15.1168C14.7949 15.1168 15.1777 14.3718 15.5824 13.4681C15.9871 12.5643 16.348 11.8193 16.3809 11.8193C16.4137 11.8193 16.7746 12.5643 17.1793 13.4681ZM31.1793 13.4681C31.584 14.3718 31.9559 15.1168 32.0105 15.1168C32.284 15.1168 35.1277 15.6175 35.1824 15.6786C35.2152 15.703 34.6902 16.3137 34.034 17.0098L32.8199 18.28L33.1152 20.173L33.4105 22.0782L31.9012 21.1867L30.3809 20.3073L28.8715 21.1867L27.3512 22.0782L27.6465 20.173L27.9418 18.28L26.7387 17.0098C26.0715 16.3015 25.5465 15.703 25.5793 15.6786C25.623 15.6298 28.5105 15.1168 28.7402 15.1168C28.7949 15.1168 29.1777 14.3718 29.5824 13.4681C29.9871 12.5643 30.348 11.8193 30.3809 11.8193C30.4137 11.8193 30.7746 12.5643 31.1793 13.4681ZM45.1793 13.4681C45.584 14.3718 45.9559 15.1168 46.0105 15.1168C46.284 15.1168 49.1277 15.6175 49.1824 15.6786C49.2152 15.703 48.6902 16.3137 48.034 17.0098L46.8199 18.28L47.1152 20.173L47.4105 22.0782L45.9012 21.1867L44.3809 20.3073L42.8715 21.1867L41.3512 22.0782L41.6465 20.173L41.9418 18.28L40.7387 17.0098C40.0715 16.3015 39.5465 15.703 39.5793 15.6786C39.623 15.6298 42.5105 15.1168 42.7402 15.1168C42.7949 15.1168 43.1777 14.3718 43.5824 13.4681C43.9871 12.5643 44.348 11.8193 44.3809 11.8193C44.4137 11.8193 44.7746 12.5643 45.1793 13.4681Z" fill="#8257E5"/>
<path d="M3.31064 15.8251C1.99814 16.3258 1.06846 17.254 0.48877 18.6341L0.13877 19.4523L0.0512695 25.1314C-0.00341797 28.2579 -0.0143555 32.7645 0.018457 35.146C0.0731445 39.8236 0.160645 40.6908 0.674707 41.6678C1.32002 42.8891 2.85127 44.0127 4.07627 44.147L4.68877 44.2203L6.43877 48.104C7.39033 50.2535 8.19971 52 8.22158 52C8.24346 52 10.1028 50.2413 12.345 48.0918L16.4247 44.1959L23.9825 44.1592L31.5294 44.1226L32.1638 43.8417C32.9513 43.4875 34.045 42.3761 34.4606 41.509C34.7013 41.0205 35.0731 39.616 35.0841 39.1519C35.0841 39.1031 29.5606 39.042 22.8122 39.0176C9.11846 38.9809 10.1685 39.042 8.50596 38.1138C7.34658 37.4665 6.05596 36.0254 5.50908 34.7797C4.71064 32.9599 4.7544 33.4484 4.71064 24.0566L4.66689 15.6052H4.26221C4.04346 15.6174 3.60596 15.7029 3.31064 15.8251Z" fill="#8257E5"/>
</svg>
